# AST/ASF file generated using VICON BodyLanguage
# -----------------------------------------------
:version 1.10
:name VICON
:units
  mass 1.0
  length 0.45
  angle deg
:documentation
   .ast/.asf automatically generated from VICON data using
   VICON BodyBuilder and BodyLanguage model FoxedUp or BRILLIANT.MOD
:root
   order TX TY TZ RX RY RZ
   axis XYZ
   position 0 0 0  
   orientation 0 0 0 
:bonedata
  begin
     id 1 
     name lhipjoint
     direction 0.693937 -0.600361 0.397515 
     length 2.37164 
     axis 0 0 0  XYZ
  end
  begin
     id 2 
     name lfemur
     direction 0.34202 -0.939693 0  
     length 6.18497  
     axis 0 0 20  XYZ
    dof rx ry rz
    limits (-160.0 20.0)
           (-70.0 70.0)
           (-60.0 70.0)
  end
  begin
     id 3 
     name ltibia
     direction 0.34202 -0.939693 0   
     length 6.91601   
     axis 0 0 20   XYZ
    dof rx
    limits (-10.0 170.0)
  end
  begin
     id 4 
     name lfoot
     direction 0.0978718 -0.2689 0.958182   
     length 1.81453   
     axis -90 7.62852e-016 20   XYZ
    dof rx rz
    limits (-45.0 90.0)
           (-70.0 20.0)
  end
  begin
     id 5 
     name ltoes
     direction 1.53569e-011 -4.21951e-011 1   
     length 0.912052   
     axis -90 7.62852e-016 20   XYZ
    dof rx
    limits (-90.0 20.0)
  end
  begin
     id 6 
     name rhipjoint
     direction -0.643996 -0.637876 0.422354   
     length 2.23216  
     axis 0 0 0  XYZ 
  end
  begin
     id 7 
     name rfemur
     direction -0.34202 -0.939693 0   
     length 6.15404   
     axis 0 0 -20   XYZ
    dof rx ry rz
    limits (-160.0 20.0)
           (-70.0 70.0)
           (-70.0 60.0)
  end
  begin
     id 8 
     name rtibia
     direction -0.34202 -0.939693 0   
     length 6.86744   
     axis 0 0 -20   XYZ
    dof rx
    limits (-10.0 170.0)
 end
 begin
     id 9 
     name rfoot
     direction -0.118701 -0.326127 0.937844   
     length 1.9243  
     axis -90 -7.62852e-016 -20   XYZ
    dof rx rz
    limits (-45.0 90.0)
           (-20.0 70.0)
  end
  begin
     id 10 
     name rtoes
     direction -1.5356e-011 -4.2181e-011 1   
     length 0.958865   
     axis -90 -7.62852e-016 -20   XYZ
    dof rx
    limits (-90.0 20.0)
  end
  begin
     id 11 
     name lowerback
     direction 0.0310826 0.968686 -0.246334   
     length 2.00021   
     axis 0 0 0   XYZ
    dof rx ry rz
    limits (-20.0 45.0)
           (-30.0 30.0)
           (-30.0 30.0)
  end
  begin
     id 12 
     name upperback
     direction -0.0152834 0.999474 -0.0286152   
     length 2.03728   
     axis 0 0 0   XYZ
    dof rx ry rz
    limits (-20.0 45.0)
           (-30.0 30.0)
           (-30.0 30.0)
  end
  begin
     id 13 
     name thorax
     direction -0.0323701 0.996236 0.0804149   
     length 2.16   
     axis 0 0 0   XYZ
    dof rx ry rz
    limits (-20.0 45.0)
           (-30.0 30.0)
           (-30.0 30.0)
  end
  begin
     id 14 
     name lowerneck
     direction 0.0307935 0.982251 0.185027   
     length 1.43558   
     axis 0 0 0   XYZ
    dof rx ry rz
    limits (-20.0 45.0)
           (-30.0 30.0)
           (-30.0 30.0)
  end
  begin
     id 15 
     name upperneck
     direction -0.0927153 0.994775 0.0427454   
     length 1.44603   
     axis 0 0 0   XYZ
    dof rx ry rz
    limits (-20.0 45.0)
           (-30.0 30.0)
           (-30.0 30.0)
  end
  begin
     id 16
     name head
     direction -0.0341265 0.999406 -0.00472033  
     length 1.45931  
     axis 0 0 0   XYZ
    dof rx ry rz
    limits (-20.0 45.0)
           (-30.0 30.0)
           (-30.0 30.0)
  end
  begin
     id 17 
     name lclavicle
     direction 0.820755 0.555306 -0.134151  
     length 2.66075  
     axis 0 0 0   XYZ
    dof ry rz
    limits (-20.0 10.0)
           (0.0 20.0)
  end
  begin
     id 18 
     name lhumerus
     direction 1 -4.48971e-011 5.24853e-027   
     length 5.0546   
     axis -180 -30 -90   XYZ
    dof rx ry rz
    limits (-60.0 90.0)
           (-90.0 90.0)
           (-90.0 90.0)
  end
  begin
     id 19
     name lradius
     direction 1 -4.48971e-011 2.76575e-028   
     length 3.39013   
     axis -180 -30 -90   XYZ
    dof rx
    limits (-10.0 170.0)
  end
  begin
     id 20
     name lwrist
     direction 1 -4.48939e-011 -2.27826e-027   
     length 1.69507   
     axis 2.17013e-015 90 90   XYZ
    dof ry
    limits (-180.0 0.0)
 end
  begin
     id 21 
     name lhand
     direction 1 -4.49009e-011 -4.55652e-027   
     length 0.572425   
     axis 2.90745e-015 90 90   XYZ
    dof rx rz
    limits (-90.0 90.0)
           (-45.0 45.0)
  end
  begin
     id 22 
     name lfingers
     direction 1 -4.48955e-011 -9.11303e-027   
     length 0.461504   
     axis 5.81489e-015 90 90   XYZ
    dof rx
    limits (0.0 90.0)
  end
  begin
     id 23
     name lthumb
     direction 0.707107 -6.34929e-011 0.707107   
     length 0.66263   
     axis -90 45 2.85299e-015   XYZ
    dof rx rz
    limits (-45.0 45.0)
           (-45.0 45.0)
  end
  begin
     id 24 
     name rclavicle
     direction -0.754477 0.632921 -0.173712   
     length 2.73081  
     axis 0 0 0   XYZ 
    dof ry rz
    limits (-10.0 20.0)
           (-20.0 0.0)
  end
  begin
     id 25 
     name rhumerus
     direction -1 -4.48969e-011 5.1496e-027  
     length 5.0701   
     axis -180 30 90   XYZ
    dof rx ry rz
    limits (-90.0 60.0)
           (-90.0 90.0)
           (-90.0 90.0)
  end
  begin
     id 26 
     name rradius
     direction -1 -4.48967e-011 -7.15624e-028   
     length 3.14957   
     axis -180 30 90   XYZ
    dof rx
    limits (-10.0 170.0)
  end
  begin
     id 27 
     name rwrist
     direction -1 -4.48938e-011 -2.27826e-027   
     length 1.57479   
     axis 2.17013e-015 -90 -90   XYZ
    dof ry
    limits (-180.0 0.0)
  end
  begin
     id 28
     name rhand
     direction -1 -4.49008e-011 -4.55652e-027   
     length 0.718191   
     axis 2.90745e-015 -90 -90   XYZ
    dof rx rz
    limits (-90.0 90.0)
           (-45.0 45.0)
  end
  begin
     id 29
     name rfingers
     direction -1 -4.48953e-011 -9.11303e-027   
     length 0.579024   
     axis 5.81489e-015 -90 -90   XYZ
    dof rx
    limits (0.0 90.0)
  end
  begin
     id 30
     name rthumb
     direction -0.707107 -6.34937e-011 0.707107   
     length 0.831366   
     axis -90 -45 -2.85299e-015   XYZ
    dof rx rz
    limits (-45.0 45.0)
           (-45.0 45.0)
  end
:hierarchy
  begin
    root lhipjoint rhipjoint lowerback
    lhipjoint lfemur
    lfemur ltibia
    ltibia lfoot
    lfoot ltoes
    rhipjoint rfemur
    rfemur rtibia
    rtibia rfoot
    rfoot rtoes
    lowerback upperback
    upperback thorax
    thorax lowerneck lclavicle rclavicle
    lowerneck upperneck
    upperneck head
    lclavicle lhumerus
    lhumerus lradius
    lradius lwrist
    lwrist lhand lthumb
    lhand lfingers
    rclavicle rhumerus
    rhumerus rradius
    rradius rwrist
    rwrist rhand rthumb
    rhand rfingers
  end

#!OML:ASF H:\Male1\Project 1\Capture day 1\Session 1\Male1.ASF
:FULLY-SPECIFIED
:DEGREES
51
root 13.1104 15.3928 0.0272284 -97.7721 83.5562 -104.397
lowerback 7.50047 2.76875 5.40746
upperback 3.01914 4.11641 -1.44191
thorax -0.578289 2.14762 -4.83561
lowerneck -11.4224 1.16952 5.19052
upperneck -5.54276 1.19003 -3.33817
head 0.236865 0.589025 -1.89885
rclavicle 3.85642e-014 -1.51076e-014
rhumerus -49.8772 25.2282 -99.9462
rradius 120.777
rwrist -29.3389
rhand -27.2698 26.4918
rfingers 7.12502
rthumb -0.680633 -3.48688
lclavicle 3.85642e-014 -1.51076e-014
lhumerus -82.0981 6.95411 78.4614
lradius 112.114
lwrist 15.3403
lhand -24.5293 -11.074
lfingers 7.12502
lthumb 1.96619 18.8967
rfemur 12.1671 -3.67177 31.9999
rtibia 60.0764
rfoot -10.564 -25.116
rtoes -17.4154
lfemur -37.6599 -11.4698 -13.9456
ltibia 33.4559
lfoot -22.4099 3.54739
ltoes -33.4171
52
root 14.0006 15.1861 0.0618588 -91.4613 84.6422 -97.4521
lowerback 8.17674 2.80753 3.89701
upperback 2.85972 4.08168 -1.84849
thorax -1.20219 2.10168 -4.45924
lowerneck -10.9271 1.3596 5.27974
upperneck -5.44802 1.44797 -2.80099
head 0.189259 0.718848 -1.72955
rclavicle -3.18055e-015 1.27222e-014
rhumerus -51.7505 24.8711 -101.627
rradius 118.833
rwrist -28.0381
rhand -26.964 25.9703
rfingers 7.12502
rthumb -0.385295 -4.00911
lclavicle -3.18055e-015 1.27222e-014
lhumerus -79.1176 7.3354 78.6219
lradius 111.745
lwrist 15.7851
lhand -24.5166 -10.103
lfingers 7.12502
lthumb 1.97843 19.8676
rfemur 8.39658 -3.87988 29.5625
rtibia 68.6864
rfoot -12.7128 -23.2958
rtoes -25.3812
lfemur -35.6494 -9.99147 -16.2642
ltibia 36.7439
lfoot -14.219 3.69382
ltoes -30.0918
53
root 14.8647 15.0354 0.0927476 -89.0328 85.8461 -94.807
lowerback 8.96818 2.54839 2.27342
upperback 2.49276 3.60736 -2.30595
thorax -2.1424 1.83462 -4.04587
lowerneck -10.0874 1.60312 5.61673
upperneck -5.81564 1.7741 -2.69862
head -0.0513482 0.874937 -1.74787
rclavicle -8.74653e-015 -1.43125e-014
rhumerus -53.6203 24.0689 -103.085
rradius 115.535
rwrist -26.1818
rhand -27.0635 26.6932
rfingers 7.12502
rthumb -0.481377 -3.28596
lclavicle -8.74653e-015 -1.43125e-014
lhumerus -75.7092 7.53979 79.1287
lradius 111.289
lwrist 15.5076
lhand -22.465 -10.6502
lfingers 7.12502
lthumb 3.9597 19.2927
rfemur 3.26518 -4.2924 27.0583
rtibia 76.6393
rfoot -11.3256 -22.7037
rtoes -18.1069
lfemur -34.2277 -8.84676 -18.6343
ltibia 40.6489
lfoot -15.2457 3.26584
ltoes -11.7933
54
root 15.6927 14.8441 0.133721 -144.088 89.5163 -149.471
lowerback 9.6103 2.39296 -1.88297
upperback 2.57434 3.01691 -3.44265
thorax -2.61377 1.56465 -2.86621
lowerneck -9.50379 1.5908 5.3951
upperneck -6.52749 1.84248 -1.98885
head -0.382479 0.91844 -1.48177
rclavicle -7.27552e-014 4.13472e-014
rhumerus -55.0487 21.87 -103.541
rradius 111.145
rwrist -22.3826
rhand -27.4159 26.2334
rfingers 7.12502
rthumb -0.821808 -3.74478
lclavicle -7.27552e-014 4.13472e-014
lhumerus -70.8845 6.44131 80.7446
lradius 111.219
lwrist 16.0421
lhand -23.6888 -6.1607
lfingers 7.12502
lthumb 2.77793 23.801
rfemur -1.76096 -5.41115 21.3669
rtibia 84.1964
rfoot -13.0498 -19.2761
rtoes -18.6392
lfemur -32.2018 -9.75544 -23.5479
ltibia 43.9417
lfoot -16.5697 1.79513
ltoes 0.11714
55
root 16.5351 14.7528 0.169868 -58.0687 92.1334 -62.7474
lowerback 10.6485 2.24718 -3.99854
upperback 2.78287 2.58648 -4.0798
thorax -3.04123 1.37978 -2.34134
lowerneck -8.87777 1.43689 5.38264
upperneck -7.5902 1.70922 -1.85204
head -0.827212 0.853316 -1.44999
rclavicle -2.78299e-015 -1.59028e-015
rhumerus -56.8061 18.9499 -103.676
rradius 106.354
rwrist -17.4941
rhand -29.608 25.2143
rfingers 7.12502
rthumb -2.93892 -4.74519
lclavicle -2.78299e-015 -1.59028e-015
lhumerus -65.0449 3.67263 83.0199
lradius 110.332
lwrist 15.7284
lhand -24.7296 -8.8405
lfingers 7.12502
lthumb 1.7727 21.1319
rfemur -6.98622 -6.43127 18.0496
rtibia 90.0674
rfoot -13.6514 -17.1649
rtoes -16.6073
lfemur -28.8215 -10.5621 -26.5786
ltibia 46.2788
lfoot -20.3712 2.01698
ltoes 0.631759
56
root 17.3665 14.7105 0.181544 -63.3282 92.2259 -68.1525
lowerback 10.8415 2.27538 -4.18868
upperback 2.62693 2.5765 -4.08423
thorax -3.31826 1.3766 -2.25344
lowerneck -8.73731 1.38474 4.69234
upperneck -7.70312 1.72689 -1.27402
head -0.894806 0.877742 -1.14655
rclavicle -2.0276e-014 -4.21423e-014
rhumerus -58.6868 16.0786 -102.841
rradius 101.858
rwrist -13.1781
rhand -32.2905 24.9124
rfingers 7.12502
rthumb -5.52917 -4.99551
lclavicle -2.0276e-014 -4.21423e-014
lhumerus -58.6424 -0.216312 85.7255
lradius 109.942
lwrist 15.5032
lhand -26.4992 -8.03641
lfingers 7.12502
lthumb 0.0635567 21.9433
rfemur -13.6232 -5.89638 17.9078
rtibia 94.033
rfoot -12.6318 -17.3305
rtoes -19.3557
lfemur -25.3227 -10.2878 -27.4047
ltibia 46.8296
lfoot -23.5298 1.94563
ltoes 2.30126
57
root 18.1822 14.6899 0.19583 -23.462 91.7491 -28.566
lowerback 10.5153 2.05037 -2.86934
upperback 2.53772 2.42696 -3.51636
thorax -3.20697 1.28099 -2.3641
lowerneck -8.36714 1.32717 4.78023
upperneck -7.73816 1.63149 -1.76134
head -0.963915 0.825295 -1.3228
rclavicle 1.82882e-014 -2.38542e-015
rhumerus -60.7015 13.831 -101.958
rradius 98.5035
rwrist -14.6232
rhand -32.3522 28.0143
rfingers 7.12502
rthumb -5.5888 -1.89199
lclavicle 1.82882e-014 -2.38542e-015
lhumerus -52.9812 -4.12983 88.2505
lradius 110.659
lwrist 14.9267
lhand -25.6331 -8.21096
lfingers 7.12502
lthumb 0.900121 21.7669
rfemur -20.1492 -5.49646 20.0073
rtibia 96.276
rfoot -13.583 -17.6966
rtoes -20.4785
lfemur -21.4296 -11.1055 -26.5872
ltibia 46.1806
lfoot -25.8096 2.72441
ltoes 0.478042
58
root 19.032 14.6811 0.218272 -20.8972 91.7434 -25.9376
lowerback 10.0953 1.87269 -2.87697
upperback 2.4997 2.20814 -3.28021
thorax -3.02898 1.16741 -2.0678
lowerneck -8.81597 1.52033 5.38866
upperneck -6.58232 1.73028 -3.21181
head -0.50136 0.853546 -1.88635
rclavicle 5.96354e-014 -2.8625e-014
rhumerus -63.3748 13.1679 -101.676
rradius 96.4208
rwrist -17.5434
rhand -31.7995 24.6368
rfingers 7.12502
rthumb -5.05511 -5.28289
lclavicle 5.96354e-014 -2.8625e-014
lhumerus -48.5529 -7.26709 90.0738
lradius 112.09
lwrist 13.1423
lhand -23.7907 -9.01907
lfingers 7.12502
lthumb 2.67947 20.9438
rfemur -25.8001 -4.17652 20.7966
rtibia 96.7692
rfoot -14.8519 -18.4848
rtoes -18.6997
lfemur -16.261 -11.1176 -27.217
ltibia 44.4356
lfoot -26.5693 3.05061
ltoes -0.804794
59
root 19.9009 14.7514 0.254053 -6.59271 92.4404 -11.5489
lowerback 9.84904 1.34154 -2.97104
upperback 2.42572 1.50407 -2.76215
thorax -2.99594 0.811462 -1.38077
lowerneck -8.85108 1.96588 5.7413
upperneck -5.98686 2.2571 -3.90958
head -0.267836 1.10232 -2.16163
rclavicle -7.15625e-015 3.26007e-014
rhumerus -65.9946 13.2602 -101.415
rradius 95.0168
rwrist -20.7961
rhand -32.3931 24.7172
rfingers 7.12502
rthumb -5.62825 -5.18801
lclavicle -7.15625e-015 3.26007e-014
lhumerus -45.6734 -9.67497 91.7777
lradius 114.064
lwrist 10.5189
lhand -23.9874 -11.5327
lfingers 7.12502
lthumb 2.48949 18.4325
rfemur -30.7232 -3.31312 21.8072
rtibia 95.0247
rfoot -15.9887 -19.1798
rtoes -25.566
lfemur -11.0734 -10.7274 -27.4787
ltibia 42.3568
lfoot -26.5448 4.44266
ltoes -6.72089
60
root 20.7894 14.8529 0.27054 -25.9834 94.614 -31.1137
lowerback 9.02824 0.451509 -4.77332
upperback 2.54542 0.217203 -2.9061
thorax -2.41954 0.178523 -0.353211
lowerneck -8.78782 2.43041 5.84869
upperneck -5.93497 2.85801 -4.24208
head -0.223626 1.39864 -2.27354
rclavicle -6.16232e-015 1.35174e-014
rhumerus -68.4085 13.7926 -101.531
rradius 94.1646
rwrist -24.2587
rhand -33.1605 24.1852
rfingers 7.12502
rthumb -6.36915 -5.69908
lclavicle -6.16232e-015 1.35174e-014
lhumerus -42.9804 -12.1934 93.0618
lradius 116.741
lwrist 9.869
lhand -23.9409 -11.2816
lfingers 7.12502
lthumb 2.5344 18.6831
rfemur -34.8414 -3.68079 19.8416
rtibia 91.7459
rfoot -16.7959 -18.9182
rtoes -26.9129
lfemur -6.14658 -11.136 -29.8361
ltibia 39.8525
lfoot -22.9035 4.90718
ltoes -10.3918
61
root 21.6863 14.9926 0.302023 -15.1373 95.0258 -20.0769
lowerback 8.76943 -0.142808 -4.49335
upperback 2.60088 -0.526122 -2.28332
thorax -2.19485 -0.204043 0.216355
lowerneck -8.81303 2.87248 5.71194
upperneck -5.84008 3.45094 -4.37616
head -0.157673 1.69589 -2.27316
rclavicle 3.57812e-015 1.98785e-014
rhumerus -70.7035 13.9998 -101.184
rradius 93.6343
rwrist -25.877
rhand -33.3117 24.7974
rfingers 7.12502
rthumb -6.5151 -5.08236
lclavicle 3.57812e-015 1.98785e-014
lhumerus -40.7593 -14.8429 94.1805
lradius 119.605
lwrist 10.9199
lhand -24.3784 -10.5916
lfingers 7.12502
lthumb 2.11188 19.3777
rfemur -37.4525 -2.19071 20.934
rtibia 86.1805
rfoot -17.0229 -18.5416
rtoes -28.2067
lfemur -1.50091 -11.1149 -29.0374
ltibia 37.4133
lfoot -17.3238 3.66286
ltoes -12.1935
62
root 22.6145 15.1732 0.319231 -9.57615 95.4987 -14.2804
lowerback 8.57045 -0.637366 -4.26327
upperback 2.66938 -1.14527 -1.83072
thorax -1.98706 -0.521639 0.616667
lowerneck -9.03697 3.24402 5.67972
upperneck -5.57543 3.93184 -4.56466
head -0.00643893 1.93277 -2.30819
rclavicle 1.64991e-014 1.51076e-014
rhumerus -72.9796 13.765 -100.864
rradius 93.1175
rwrist -27.1237
rhand -33.6495 25.2124
rfingers 7.12502
rthumb -6.84122 -4.65702
lclavicle 1.64991e-014 1.51076e-014
lhumerus -38.6776 -17.4899 94.9036
lradius 122.238
lwrist 12.1808
lhand -24.3361 -11.3179
lfingers 7.12502
lthumb 2.15277 18.651
rfemur -38.931 -0.483102 21.2421
rtibia 78.9732
rfoot -16.9485 -18.0375
rtoes -28.9953
lfemur 2.94743 -11.5221 -28.4893
ltibia 34.9084
lfoot -11.6434 2.5572
ltoes -9.31002
